<svg width="72" height="88" viewBox="0 0 72 88" fill="none" xmlns="http://www.w3.org/2000/svg">
<path d="M4.14936 71.7298C5.06614 78.5392 10.7061 83.8737 17.5695 84.1892C23.3447 84.4546 29.2113 84.5932 35.6717 84.5932C42.1322 84.5932 47.9986 84.4546 53.7738 84.1892C60.6374 83.8737 66.2772 78.5392 67.1941 71.7298C67.7926 67.2861 68.2859 62.7319 68.2859 58.0942C68.2859 53.4565 67.7926 48.9023 67.1941 44.4586C66.2772 37.6492 60.6374 32.3147 53.7738 31.9992C47.9986 31.7337 42.1322 31.5952 35.6717 31.5952C29.2113 31.5952 23.3447 31.7337 17.5695 31.9992C10.7061 32.3147 5.06614 37.6492 4.14936 44.4586C3.55101 48.9023 3.05756 53.4565 3.05756 58.0942C3.05756 62.7319 3.55101 67.2861 4.14936 71.7298Z" fill="white" stroke="white" stroke-width="6.11515"/>
<path d="M17.3263 31.595V21.4031C17.3263 11.2712 25.5398 3.05762 35.6718 3.05762C45.8037 3.05762 54.0172 11.2712 54.0172 21.4031V31.595" stroke="white" stroke-width="6.11515" stroke-linecap="round" stroke-linejoin="round"/>
<path d="M36.1813 58.0939H35.6717M36.6909 58.0939C36.6909 58.6569 36.2347 59.1131 35.6717 59.1131C35.1087 59.1131 34.6525 58.6569 34.6525 58.0939C34.6525 57.5309 35.1087 57.0747 35.6717 57.0747C36.2347 57.0747 36.6909 57.5309 36.6909 58.0939Z" stroke="#22C77A" stroke-width="6.11515" stroke-linecap="round"/>
</svg>
