<svg width="89" height="81" viewBox="0 0 89 81" fill="none" xmlns="http://www.w3.org/2000/svg">
<path d="M51.4084 8.45199L58.6576 21.6287C59.6462 23.4629 62.2822 25.2223 64.5066 25.5592L77.6455 27.5432C86.0481 28.816 88.0254 34.3562 81.9704 39.8215L71.7558 49.105C70.0256 50.6772 69.0786 53.7093 69.6137 55.8807L72.5384 67.3728C74.8448 76.4692 69.5313 79.9881 60.676 75.2338L48.3605 68.6082C46.1365 67.4103 42.4708 67.4103 40.2051 68.6082L27.8899 75.2338C19.0756 79.9881 13.7211 76.4317 16.0276 67.3728L18.952 55.8807C19.4874 53.7093 18.5401 50.6772 16.8102 49.105L6.59545 39.8215C0.581915 34.3562 2.51779 28.816 10.9202 27.5432L24.0594 25.5592C26.2424 25.2223 28.8784 23.4629 29.8669 21.6287L37.1161 8.45199C41.0702 1.30214 47.4955 1.30214 51.4084 8.45199Z" fill="white" stroke="white" stroke-width="6.17896" stroke-linecap="round" stroke-linejoin="round"/>
</svg>
